<svg fill="currentColor" role="img" viewBox="0 0 24 24" xmlns="http://www.w3.org/2000/svg"><title>AWS S3</title><path d="M20.913 13.147l-.12-.225c-.039-.068-.118-.21-.118-.21l-2.132-3.986a.459.459 0 0 0-.404-.244h-3.503V7.5h3.503a.459.459 0 0 0 .404-.244l2.132-3.986s.08-.142.118-.21l.12-.225A.459.459 0 0 0 21.318 2.4a.459.459 0 0 0-.405-.244H3.087a.459.459 0 0 0-.405.244.459.459 0 0 0 .405.435l.12.225c.039.068.118.21.118.21L5.457 7.256a.459.459 0 0 0 .404.244h3.503v.982H5.86a.459.459 0 0 0-.404.244L3.325 12.712s-.08.142-.118.21l-.12.225a.459.459 0 0 0 .405.435c.075.13.226.218.405.218h6.467v1.682H3.087a.459.459 0 0 0-.405.244.459.459 0 0 0 .405.435l.12.225c.039.068.118.21.118.21l2.132 3.986a.459.459 0 0 0 .404.244h12.278a.459.459 0 0 0 .404-.244l2.132-3.986s.08-.142.118-.21l.12-.225a.459.459 0 0 0 .405-.435.459.459 0 0 0-.405-.244H14.636V13.6h6.277c.179 0 .33-.087.405-.218a.459.459 0 0 0-.405-.235z"/></svg>