<svg fill="currentColor" role="img" viewBox="0 0 24 24" xmlns="http://www.w3.org/2000/svg"><title>Backblaze</title><path d="M0 18.866V5.134L2.31 3.8v16.4L0 18.866zm22.63-7.602l-8.94-5.161v2.318l6.63 3.827v.304l-6.63 3.828v2.318l8.94-5.162v-1.967l-.003-.305h.003zm-9.56-5.517L2.93 11.264v1.473l10.14 5.516v-2.551L5.24 11.856v-.713l7.83-3.845V4.747zm1.24 0v3.001l2.99 1.727v2.818l-2.99 1.727v3.001l5.92-3.418V9.165l-5.92-3.418zm-1.87.356L2.93 11.264v1.473l9.51 5.16V6.103zM1.37 18.2L12 24l10.63-5.8v-2.25l-.8.462L12 21.75l-9.83-5.338-.8-.462V18.2zm0-12.4v2.25l.8-.462L12 2.25l9.83 5.338.8.462V5.8L12 0 1.37 5.8z"/></svg>