<svg fill="currentColor" role="img" viewBox="0 0 24 24" xmlns="http://www.w3.org/2000/svg"><title>Canva</title><path d="M 12.038 0C 5.386 0 0 5.386 0 12.038c0 4.577 2.548 8.554 6.3 10.591a2.343 2.343 0 0 0 1.14.296c.858 0 1.553-.696 1.553-1.553 0-.465-.204-.89-.537-1.179-2.39-2.075-3.504-4.856-3.504-7.6 0-5.164 3.654-8.99 8.368-9.364.463-.037.929-.056 1.396-.056 3.2 0 5.945 1.33 7.554 3.066a2.3 2.3 0 0 1 .629 1.586c0 .956-.581 1.764-1.412 2.112-.36.151-.618.497-.618.9 0 .542.44.982.982.982a.99.99 0 0 0 .394-.082A4.52 4.52 0 0 0 24 7.627C24 3.347 18.672 0 12.038 0z"/></svg>