<svg xmlns="http://www.w3.org/2000/svg" viewBox="0 0 24 24" fill="currentColor"><path d="M12 0C8.21 0 4.831 1.757 2.632 4.501l3.953 6.848A5.454 5.454 0 0 1 12 6.545h10.691A12 12 0 0 0 12 0zM1.931 5.47A11.943 11.943 0 0 0 0 12c0 6.012 4.42 10.991 10.189 11.864l3.953-6.847a5.454 5.454 0 0 1-6.865-2.29L1.931 5.47zm13.07 2.786a5.454 5.454 0 0 1 .926 6.931l-3.345 5.794A11.96 11.96 0 0 0 12 21a12.01 12.01 0 0 0 10.691-6.545H15.001zm-2.637 1.38a2.364 2.364 0 1 0 0 4.728 2.364 2.364 0 0 0 0-4.728z"/></svg>
