<svg fill="currentColor" role="img" viewBox="0 0 24 24" xmlns="http://www.w3.org/2000/svg"><title>Cloudflare R2</title><path d="M16.51 12.846a1.064 1.064 0 0 0 1.018-.78l.758-2.648a.39.39 0 0 0-.014-.293.387.387 0 0 0-.228-.19 6.964 6.964 0 0 0-2.168-.347 6.985 6.985 0 0 0-6.875 5.727c-.045.264.159.531.44.531zm-4.238 2.791a.546.546 0 0 0-.527.404l-.213.746a.39.39 0 0 0 .014.293.388.388 0 0 0 .228.19c.423.15.867.26 1.324.327a.484.484 0 0 0 .543-.395l.268-.935a.546.546 0 0 0-.527-.63zM4.8 17.075h4.604a.546.546 0 0 0 .527-.404l1.06-3.7a.39.39 0 0 0-.014-.293.387.387 0 0 0-.228-.19A4.573 4.573 0 0 0 9.4 12.2a4.604 4.604 0 0 0-4.544 3.832.43.43 0 0 0 .104.355.43.43 0 0 0 .34.162h-.5z"/></svg>