<svg fill="currentColor" role="img" viewBox="0 0 24 24" xmlns="http://www.w3.org/2000/svg"><title>Google Calendar</title><path d="M18.316 5.684H24v12.632h-5.684V5.684zM5.684 24h12.632v-5.684H5.684V24zM18.316 5.684V0H5.684v5.684h12.632zM5.684 18.316H0V5.684h5.684v12.632zM7.895 14.842h1.406v-4.263l-1.503.361v-.97l1.497-.361h1.21v5.233h1.406v1.052H7.895v-1.052zm5.71-1.326c.39 0 .704-.093.94-.28.237-.186.356-.44.356-.763 0-.338-.125-.6-.374-.787-.25-.187-.594-.28-1.032-.28-.213 0-.43.028-.649.083a2.27 2.27 0 0 0-.576.233v-1.1c.213-.07.44-.124.68-.162.24-.038.484-.057.733-.057.71 0 1.262.154 1.658.462.395.31.593.736.593 1.28 0 .397-.112.728-.336.993-.224.266-.537.441-.938.526v.038c.462.056.82.218 1.074.486.254.268.38.612.38 1.033 0 .603-.22 1.076-.66 1.42-.44.343-1.042.515-1.808.515-.273 0-.547-.023-.822-.07a3.836 3.836 0 0 1-.74-.2v-1.158c.238.133.486.234.743.302.257.07.519.104.787.104.43 0 .762-.095 1-.285.236-.19.355-.454.355-.792 0-.365-.134-.64-.402-.824-.268-.185-.66-.277-1.176-.277h-.57v-1.052h.584z"/></svg>