<svg fill="currentColor" role="img" viewBox="0 0 24 24" xmlns="http://www.w3.org/2000/svg"><title>Lemon Squeezy</title><path d="M16.28 0a7.686 7.686 0 0 1 3.949 1.243c1.304.87 2.362 2.127 2.963 3.589.601 1.462.72 3.065.344 4.598a7.653 7.653 0 0 1-2.36 3.94L9.37 24l-1.534-1.534L19.04 11.26c.2-.186.378-.393.534-.617a5.64 5.64 0 0 0 .973-2.484 5.636 5.636 0 0 0-.257-2.754 5.655 5.655 0 0 0-1.622-2.346 5.669 5.669 0 0 0-2.346-1.36 5.682 5.682 0 0 0-2.753.008 5.676 5.676 0 0 0-2.429 1.272l-.058.052L.023 14.61 14.61.023c.08-.012.16-.017.24-.017ZM7.5 16.5l-1-1L16.5 5.5l1 1z"/></svg>