<svg fill="currentColor" role="img" viewBox="0 0 24 24" xmlns="http://www.w3.org/2000/svg"><title>Microsoft Teams</title><path d="M20.625 8.5h-3.75c.036.168.063.339.078.513l.003.112v5.625a3.752 3.752 0 0 1-2.953 3.664v.711a2.625 2.625 0 0 0 2.625 2.625h.397a2.626 2.626 0 0 0 2.603-2.291V12.5h2.25a.75.75 0 0 0 .747-.675V9.75a1.25 1.25 0 0 0-1.25-1.25h.25zM19.5 7.5a1.75 1.75 0 1 0 0-3.5 1.75 1.75 0 0 0 0 3.5zm-5.25 1H7.5A1.25 1.25 0 0 0 6.25 9.75v5a3.75 3.75 0 0 0 3.456 3.74A3.002 3.002 0 0 0 15 16.25V9.75a1.25 1.25 0 0 0-1.25-1.25h.5zM11.25 7a2.25 2.25 0 1 0 0-4.5 2.25 2.25 0 0 0 0 4.5zM1 7.5a1 1 0 0 0-1 1v7a1 1 0 0 0 1 1h5a1 1 0 0 0 1-1v-7a1 1 0 0 0-1-1H1zm1.5 2h2v1h-1.25v1H4.5v1H3.25v1.5h-1V9.5h.25z"/></svg>