<svg fill="currentColor" role="img" viewBox="0 0 24 24" xmlns="http://www.w3.org/2000/svg"><title>Microsoft Excel</title><path d="M23 1.5H8.25a.75.75 0 0 0-.75.75v3.75H1a1 1 0 0 0-1 1v10a1 1 0 0 0 1 1h6.5v3.75c0 .414.336.75.75.75H23a1 1 0 0 0 1-1v-19a1 1 0 0 0-1-1zM1.5 16.5h6V7.5h-6v9zm8-9v3h4.5v-3H9.5zm4.5 4.5h-4.5v3h4.5v-3zm0 4.5h-4.5v3h4.5v-3zm1.5 3h6.5v-3H15.5v3zm6.5-4.5H15.5v-3h6.5v3zm0-4.5H15.5v-3h6.5v3zM9.5 3h12.5v3H9.5V3zM4.78 15.04L3.2 12.74l-.03-.05h1.42l.87 1.5.89-1.5h1.36l-1.58 2.26 1.66 2.38h-1.42l-.96-1.6-.96 1.6H3.07l1.71-2.39z"/></svg>