<svg fill="currentColor" role="img" viewBox="0 0 24 24" xmlns="http://www.w3.org/2000/svg"><title>Microsoft Outlook</title><path d="M24 7.387v10.478c0 .23-.08.424-.238.576-.158.154-.352.23-.58.23h-8.547v-6.959l1.6 1.229c.102.086.227.129.375.129s.273-.043.375-.13L24 7.387zm-9.365-2.059h8.547c.203 0 .39.063.563.191.171.127.27.281.293.461l-7.203 5.602-2.2-1.69V5.328zM13.5 3.258v17.484a.733.733 0 01-.093.37.728.728 0 01-.281.282L1.59 23.926a.56.56 0 01-.281.074.725.725 0 01-.457-.164A.497.497 0 01.66 23.5V5.754c0-.164.047-.312.14-.445a.73.73 0 01.376-.281L13.08 3.04a.471.471 0 01.187-.04c.188 0 .344.086.234.258zm-6.668 5.91c-.554-.02-1.063.12-1.527.42-.465.299-.825.715-1.082 1.246-.256.531-.384 1.12-.384 1.77 0 .618.119 1.186.356 1.703.238.52.58.926 1.028 1.223.448.297.953.445 1.512.445.574 0 1.086-.137 1.535-.41.449-.274.798-.672 1.047-1.191s.375-1.106.375-1.758c0-.633-.12-1.21-.36-1.727a2.876 2.876 0 00-1.02-1.237c-.44-.305-.943-.465-1.508-.484h.028zm.024 1.195c.355 0 .648.168.879.504.23.336.344.836.344 1.5 0 .64-.117 1.14-.352 1.5-.234.36-.527.54-.878.54-.364 0-.66-.176-.888-.527-.228-.352-.342-.832-.342-1.441 0-.66.113-1.172.34-1.536.225-.363.521-.543.89-.543l.007.003z"/></svg>
