<svg fill="currentColor" role="img" viewBox="0 0 24 24" xmlns="http://www.w3.org/2000/svg"><title>monday.com</title><path d="M2.597 8.634a2.496 2.496 0 0 0-2.16 1.248 2.498 2.498 0 0 0 .913 3.412l6.876 3.968a2.497 2.497 0 0 0 3.412-.912 2.498 2.498 0 0 0-.912-3.413L3.85 8.97a2.488 2.488 0 0 0-1.253-.336zm8.75 0a2.496 2.496 0 0 0-2.16 1.248 2.498 2.498 0 0 0 .913 3.412l6.876 3.968a2.497 2.497 0 0 0 3.412-.912 2.498 2.498 0 0 0-.912-3.413L12.6 8.97a2.488 2.488 0 0 0-1.253-.336zm10.157 1.248a2.497 2.497 0 1 0 0 4.994 2.497 2.497 0 0 0 0-4.994z"/></svg>
