<svg xmlns="http://www.w3.org/2000/svg" viewBox="0 0 24 24" fill="currentColor">
  <path d="M12.868 4.467a1.5 1.5 0 0 0-1.736 0L4.265 9.4a1.5 1.5 0 0 0-.265.233V7.5a1.5 1.5 0 0 1 .633-1.225l6.5-4.6a1.5 1.5 0 0 1 1.734 0l6.5 4.6A1.5 1.5 0 0 1 20 7.5v2.133a1.5 1.5 0 0 0-.265-.233l-6.867-4.933Z"/>
  <path d="M12.868 9.467a1.5 1.5 0 0 0-1.736 0L4.265 14.4A1.5 1.5 0 0 0 4 16.5v1a1.5 1.5 0 0 0 .633 1.225l6.5 4.6a1.5 1.5 0 0 0 1.734 0l6.5-4.6A1.5 1.5 0 0 0 20 17.5v-1a1.5 1.5 0 0 0-.633-1.225l-6.5-4.808Zm-1.04 1.3a.5.5 0 0 1 .578 0l6.094 4.383a.5.5 0 0 1 .211.408v1a.5.5 0 0 1-.211.408l-6.094 4.309a.5.5 0 0 1-.578 0L6.29 17.066a.5.5 0 0 1-.211-.408v-1a.5.5 0 0 1 .211-.408l5.538-3.983Z"/>
</svg>
