<svg fill="currentColor" role="img" viewBox="0 0 24 24" xmlns="http://www.w3.org/2000/svg"><title>OneDrive</title><path d="M19.453 10.49A5.003 5.003 0 0 0 14.58 7a4.98 4.98 0 0 0-3.654 1.592A4.489 4.489 0 0 0 9 8.25a4.502 4.502 0 0 0-4.38 3.478A3.752 3.752 0 0 0 0 15.25a3.75 3.75 0 0 0 3.75 3.75h15a5.25 5.25 0 0 0 .703-10.51zM18.75 17.5H3.75a2.25 2.25 0 0 1 0-4.5c.08 0 .159.005.238.014l1.341.156.22-1.328A3.001 3.001 0 0 1 9 9.75c.39 0 .772.075 1.131.223l.893.368.539-.804A3.481 3.481 0 0 1 14.58 8.5a3.502 3.502 0 0 1 3.41 2.716l.211.876.898-.098a3.751 3.751 0 0 1-.349 7.506z"/></svg>