<svg fill="currentColor" role="img" viewBox="0 0 24 24" xmlns="http://www.w3.org/2000/svg"><title>Pipedrive</title><path d="M12 0C5.373 0 0 5.373 0 12s5.373 12 12 12 12-5.373 12-12S18.627 0 12 0zm-.857 18.084c-2.746 0-4.463-1.99-4.463-4.672 0-2.742 1.868-4.837 4.612-4.837 1.145 0 2.113.399 2.71 1.092V6.06h2.14v11.84h-2.14v-.908c-.656.716-1.594 1.092-2.859 1.092zm.298-7.603c-1.567 0-2.622 1.12-2.622 2.85 0 1.76 1.085 2.848 2.622 2.848 1.536 0 2.651-1.12 2.651-2.879 0-1.73-1.115-2.819-2.651-2.819z"/></svg>