<svg fill="currentColor" role="img" viewBox="0 0 24 24" xmlns="http://www.w3.org/2000/svg"><title>SharePoint</title><path d="M13.5 2a6.5 6.5 0 0 0-6.29 4.866A5.5 5.5 0 0 0 2 12a5.5 5.5 0 0 0 4.5 5.408v.092a4.5 4.5 0 0 0 4.5 4.5 4.5 4.5 0 0 0 4.49-4.214A5 5 0 0 0 20 13a5 5 0 0 0-1.064-3.085A6.5 6.5 0 0 0 13.5 2zm0 2a4.5 4.5 0 0 1 3.918 2.293A5.017 5.017 0 0 0 15 6a4.975 4.975 0 0 0-3.223 1.18A5.469 5.469 0 0 0 9.21 6.077 4.502 4.502 0 0 1 13.5 4zM7.5 8.5a3.5 3.5 0 0 1 2.566 1.121A4.484 4.484 0 0 0 8.5 13c0 .526.098 1.03.268 1.5H4.5a3.5 3.5 0 0 1 0-7h.268A3.483 3.483 0 0 1 7.5 8.5zm3.5 11a2.5 2.5 0 0 1-2.496-2.359A4.983 4.983 0 0 0 10 17a4.97 4.97 0 0 0 3.723-1.684A2.5 2.5 0 0 1 11 19.5z"/></svg>