<svg fill="currentColor" role="img" viewBox="0 0 24 24" xmlns="http://www.w3.org/2000/svg"><title>WooCommerce</title><path d="M2.227 4.857A2.228 2.228 0 0 0 0 7.084v7.2a2.228 2.228 0 0 0 2.227 2.227h7.006l3.018 2.746V16.51h9.522A2.228 2.228 0 0 0 24 14.284v-7.2a2.228 2.228 0 0 0-2.227-2.227zm1.076 1.658h.575c.31 0 .54.2.687.6l1.56 4.563 1.57-4.563c.14-.407.373-.6.688-.6h.575c.396 0 .619.243.67.73l.726 5.052c.025.177 0 .33-.076.46a.524.524 0 0 1-.357.22h-.557c-.36 0-.567-.2-.62-.6l-.432-3.36-1.37 3.96h-.652l-1.403-3.96-.397 3.36c-.053.4-.26.6-.62.6H3.31a.535.535 0 0 1-.35-.198c-.084-.131-.111-.29-.082-.468zm10.674 0c.73 0 1.354.263 1.872.787.517.525.776 1.165.776 1.92 0 .756-.259 1.396-.776 1.92-.518.525-1.143.787-1.872.787-.73 0-1.348-.262-1.854-.787-.507-.524-.76-1.164-.76-1.92 0-.755.253-1.395.76-1.92.506-.524 1.125-.787 1.854-.787zm5.263 0c.73 0 1.354.263 1.871.787.518.525.776 1.165.776 1.92 0 .756-.258 1.396-.776 1.92-.517.525-1.142.787-1.871.787-.73 0-1.348-.262-1.854-.787-.507-.524-.76-1.164-.76-1.92 0-.755.253-1.395.76-1.92.506-.524 1.124-.787 1.854-.787zm-5.263 1.108c-.395 0-.722.152-.98.457-.26.304-.39.68-.39 1.129 0 .448.13.825.39 1.13.258.304.585.457.98.457.394 0 .727-.153.999-.458.272-.305.408-.681.408-1.13 0-.448-.136-.824-.408-1.128-.272-.305-.605-.457-1-.457zm5.263 0c-.395 0-.722.152-.98.457-.26.304-.39.68-.39 1.129 0 .448.13.825.39 1.13.258.304.585.457.98.457.394 0 .727-.153.999-.458.272-.305.408-.681.408-1.13 0-.448-.136-.824-.408-1.128-.272-.305-.605-.457-1-.457z"/></svg>