<svg xmlns="http://www.w3.org/2000/svg" viewBox="0 0 24 24" fill="currentColor">
  <path d="M15.535 8.465l-1.342-1.342a.75.75 0 0 0-1.06 0L12 8.256l-1.133-1.133a.75.75 0 0 0-1.06 0l-1.342 1.342a.75.75 0 0 0 0 1.06L9.598 10.66l-.006.006L8.465 11.8a.75.75 0 0 0 0 1.06l-.006.006.006.006 1.133 1.127-.006.006 1.342 1.342a.75.75 0 0 0 1.06 0l.006-.006 1.133-1.133.006.006 1.342-1.342a.75.75 0 0 0 0-1.06l-1.133-1.133.006-.006 1.133-1.133.006-.006a.75.75 0 0 0 .042-1.06ZM12 13.06L10.94 12 12 10.94 13.06 12 12 13.06Z"/>
  <path fill-rule="evenodd" d="M12 2C6.477 2 2 6.477 2 12s4.477 10 10 10 10-4.477 10-10S17.523 2 12 2ZM3.5 12a8.5 8.5 0 1 1 17 0 8.5 8.5 0 0 1-17 0Z" clip-rule="evenodd"/>
</svg>
